<svg width="40" height="40" viewBox="0 0 40 40" fill="none" xmlns="http://www.w3.org/2000/svg">
<circle cx="20" cy="20" r="20" fill="white"/>
<path d="M31.4546 28.7273H11.8182C11.4909 28.7273 11.2728 28.9455 11.2728 29.2727C11.2728 29.6 11.491 29.8182 11.8182 29.8182H30.9091V30.9091H9.09092V29.8182H9.63636C9.96364 29.8182 10.1818 29.6 10.1818 29.2727V27.6364H10.7272H12.909H16.1818H18.3635H21.6363H23.8181H27.0908H29.2726H30.3635C30.6908 27.6364 30.9089 27.4182 30.9089 27.0909C30.9089 26.7636 30.6907 26.5455 30.3635 26.5455H29.8181V18.3636H30.3635C30.6908 18.3636 30.9089 18.1454 30.9089 17.8182V15.6364V14.5455C30.9089 14.3273 30.7453 14.1091 30.5271 14.0546L26.6 12.5818C25.6182 9.90908 23 8 20 8C17 8 14.3818 9.90908 13.4 12.5818L9.47272 14.0545C9.25452 14.1091 9.09092 14.3272 9.09092 14.5454V15.6364C9.09092 15.9636 9.30913 16.1818 9.63636 16.1818H28.1818C28.5091 16.1818 28.7272 15.9636 28.7272 15.6364C28.7272 15.3091 28.509 15.0909 28.1818 15.0909H10.1818V14.9273L20 11.3273L29.8182 14.9273V15.6364V17.2727H29.2728H27.091H23.8182H21.6365H18.3637H16.1819H12.9092H10.7273H9.63636C9.30908 17.2727 9.09092 17.4909 9.09092 17.8182C9.09092 18.1454 9.30913 18.3636 9.63636 18.3636H10.1818V26.5454H9.63636C9.30908 26.5454 9.09092 26.7636 9.09092 27.0908V28.7272H8.54544C8.2182 28.7273 8 28.9454 8 29.2727V31.4545C8 31.7818 8.2182 32 8.54544 32H31.4545C31.7818 32 32 31.7818 32 31.4546V29.2728C32 28.9454 31.7818 28.7273 31.4546 28.7273ZM20.2182 10.1818C20.0546 10.1818 19.9455 10.1818 19.8364 10.2364L14.8727 12.0909C15.8545 10.2909 17.8182 9.09092 20 9.09092C22.1818 9.09092 24.1454 10.2909 25.1818 12.0364L20.2182 10.1818ZM27.6364 18.3636H28.7273V26.5454H27.6364V18.3636ZM24.3636 18.3636H26.5454V26.5454H24.3636V18.3636ZM22.1818 18.3636H23.2727V26.5454H22.1818V18.3636ZM18.9091 18.3636H21.0909V26.5454H18.9091V18.3636V18.3636ZM16.7273 18.3636H17.8182V26.5454H16.7273V18.3636ZM13.4546 18.3636H15.6364V26.5454H13.4546V18.3636V18.3636ZM11.2727 18.3636H12.3636V26.5454H11.2727V18.3636Z" fill="black"/>
<path d="M20 14.5455C20.6025 14.5455 21.0909 14.0571 21.0909 13.4546C21.0909 12.8521 20.6025 12.3636 20 12.3636C19.3975 12.3636 18.9091 12.8521 18.9091 13.4546C18.9091 14.0571 19.3975 14.5455 20 14.5455Z" fill="black"/>
</svg>
